<?xml version="1.0"?>
<svg xmlns="http://www.w3.org/2000/svg" xmlns:xlink="http://www.w3.org/1999/xlink" version="1.1" id="Layer_1" x="0px" y="0px" viewBox="0 0 512 512" style="enable-background:new 0 0 512 512;" xml:space="preserve" width="512px" height="512px"><g transform="matrix(1 -2.44929e-16 2.44929e-16 1 -1.13687e-13 0)"><g>
	<path d="M462,106h-40c-5.523,0-10,4.477-10,10c0,16.542-13.458,30-30,30s-30-13.458-30-30c0-5.523-4.477-10-10-10H50   c-27.57,0-50,22.43-50,50v200c0,27.57,22.43,50,50,50h292c5.523,0,10-4.477,10-10c0-16.542,13.458-30,30-30s30,13.458,30,30   c0,5.523,4.477,10,10,10h40c27.57,0,50-22.43,50-50V156C512,128.43,489.57,106,462,106z M492,356c0,16.542-13.458,30-30,30h-31.004   c-4.646-22.794-24.85-40-48.996-40s-44.349,17.206-48.996,40H50c-16.542,0-30-13.458-30-30V156c0-16.542,13.458-30,30-30h283.004   c3.987,19.561,19.435,34.995,38.996,38.983V176c0,5.51,4.49,10,10,10c5.51,0,10-4.49,10-10v-11.017   c19.56-3.988,35.008-19.423,38.996-38.983H462c16.542,0,30,13.458,30,30V356z" data-original="#000000" class="active-path" data-old_color="#000000" fill="#666666"/>
	<path d="M262,186h-32c-5.523,0-10,4.477-10,10s4.477,10,10,10h32c5.523,0,10-4.477,10-10S267.523,186,262,186z" data-original="#000000" class="active-path" data-old_color="#000000" fill="#666666"/>
	<path d="M50,206h60c5.523,0,10-4.477,10-10s-4.477-10-10-10H50c-5.523,0-10,4.477-10,10S44.477,206,50,206z" data-original="#000000" class="active-path" data-old_color="#000000" fill="#666666"/>
	<path d="M150,206h40c5.523,0,10-4.477,10-10s-4.477-10-10-10h-40c-5.523,0-10,4.477-10,10S144.477,206,150,206z" data-original="#000000" class="active-path" data-old_color="#000000" fill="#666666"/>
	<path d="M50,246h192c5.523,0,10-4.477,10-10s-4.477-10-10-10H50c-5.523,0-10,4.477-10,10S44.477,246,50,246z" data-original="#000000" class="active-path" data-old_color="#000000" fill="#666666"/>
	<path d="M50,294c-5.51,0-10,4.49-10,10c0,5.51,4.49,10,10,10c5.51,0,10-4.49,10-10C60,298.49,55.51,294,50,294z" data-original="#000000" class="active-path" data-old_color="#000000" fill="#666666"/>
	<path d="M382,246c-5.51,0-10,4.49-10,10v20c0,5.51,4.49,10,10,10c5.51,0,10-4.49,10-10v-20C392,250.49,387.51,246,382,246z" data-original="#000000" class="active-path" data-old_color="#000000" fill="#666666"/>
	<path d="M382,306c-5.51,0-10,4.49-10,10c0,5.51,4.49,10,10,10c5.51,0,10-4.49,10-10C392,310.49,387.51,306,382,306z" data-original="#000000" class="active-path" data-old_color="#000000" fill="#666666"/>
	<path d="M382,206c-5.51,0-10,4.49-10,10c0,5.51,4.49,10,10,10c5.51,0,10-4.49,10-10C392,210.49,387.51,206,382,206z" data-original="#000000" class="active-path" data-old_color="#000000" fill="#666666"/>
	<path d="M462,186h-40c-5.523,0-10,4.477-10,10v40c0,5.523,4.477,10,10,10h40c5.523,0,10-4.477,10-10v-40   C472,190.477,467.523,186,462,186z M452,226h-20v-20h20V226z" data-original="#000000" class="active-path" data-old_color="#000000" fill="#666666"/>
	<path d="M462,266h-40c-5.523,0-10,4.477-10,10s4.477,10,10,10h40c5.523,0,10-4.477,10-10S467.523,266,462,266z" data-original="#000000" class="active-path" data-old_color="#000000" fill="#666666"/>
	<path d="M462,306h-40c-5.523,0-10,4.477-10,10s4.477,10,10,10h40c5.523,0,10-4.477,10-10S467.523,306,462,306z" data-original="#000000" class="active-path" data-old_color="#000000" fill="#666666"/>
	<path d="M342,186h-40c-5.523,0-10,4.477-10,10v40c0,5.523,4.477,10,10,10h40c5.523,0,10-4.477,10-10v-40   C352,190.477,347.523,186,342,186z M332,226h-20v-20h20V226z" data-original="#000000" class="active-path" data-old_color="#000000" fill="#666666"/>
	<path d="M227.929,266.929c-3.905-3.905-10.237-3.905-14.143,0c-3.905,3.905-3.905,10.237,0,14.143L226.716,294H110   c-5.51,0-10,4.49-10,10c0,5.51,4.49,10,10,10h116.716l-12.929,12.929c-3.905,3.905-3.905,10.237,0,14.143   c1.953,1.953,4.512,2.929,7.071,2.929s5.119-0.976,7.071-2.929l30-30c3.905-3.905,3.905-10.237,0-14.143L227.929,266.929z" data-original="#000000" class="active-path" data-old_color="#000000" fill="#666666"/>
	<path d="M310,294c-5.51,0-10,4.49-10,10c0,5.51,4.49,10,10,10c5.51,0,10-4.49,10-10C320,298.49,315.51,294,310,294z" data-original="#000000" class="active-path" data-old_color="#000000" fill="#666666"/>
</g></g> </svg>
